<svg xmlns="http://www.w3.org/2000/svg" xml:space="preserve" version="1.1" style="shape-rendering:geometricPrecision; text-rendering:geometricPrecision; image-rendering:optimizeQuality; fill-rule:evenodd; clip-rule:evenodd" xmlns:xlink="http://www.w3.org/1999/xlink" viewBox="249.88 749.88 10804.85 11930.12">
 <defs>
  <style type="text/css">
   <![CDATA[
    .fil0 {fill:#373435}
   ]]>
  </style><style class="darkreader darkreader--sync" media="screen"/>
 </defs>
 <g id="Capa_x0020_1">
  <metadata id="CorelCorpID_0Corel-Layer"/>
  <g id="_2380062028544">
   <path class="fil0" d="M7435 8263c-111,6 -213,-104 -249,-179 -9,-17 -50,-145 -49,-160 2,-33 19,-39 40,-62 29,-31 19,-23 54,-51 52,-41 82,-98 124,-53 11,12 44,138 48,165 31,176 98,216 32,340zm-1294 -1889c62,-10 76,19 121,48 56,36 288,217 208,301 -83,88 -363,-184 -329,-349zm-2485 -1096c46,-7 38,-10 69,11 102,68 70,244 -71,89 -41,-45 -29,-57 2,-100zm205 -1618c48,-37 49,20 18,66 -22,34 -108,284 -186,299 -172,33 72,-292 168,-365zm2324 -1669c-18,-38 -34,-87 -53,-120 -11,-21 -27,-24 -22,-56 4,-29 30,-38 32,-45 1,-4 4,-4 6,-6 46,-39 352,50 432,83 128,54 201,60 327,201 72,81 147,254 162,367 22,164 -27,272 -100,414 -114,224 -132,233 -298,405 -65,68 -39,84 -163,192 -126,110 -103,-87 -75,-163 14,-35 9,-44 17,-82l108 -321c19,-179 -10,-276 -100,-429 -46,-77 -100,-137 -149,-207 -67,-96 -40,-76 -65,-120 -21,-36 -39,-71 -59,-113zm-5793 9187l660 -9c73,-3 198,-4 274,-13 68,-8 227,18 253,-33 7,-12 23,-244 19,-267 -145,-17 -484,8 -661,11 -71,1 -166,12 -223,9 -12,-84 120,-415 171,-526l95 -202c22,-51 38,-104 59,-145l69 -130c33,-63 56,-143 93,-207l60 -130c10,-22 28,-46 36,-69 39,-105 250,-519 326,-675l202 -394c86,-172 193,-356 274,-525l276 -520c25,-67 43,-83 65,-138 21,-53 40,-95 60,-142l194 -409c29,-38 45,-85 68,-130 67,10 176,192 221,246l214 268c23,27 32,33 53,61l158 198c73,93 122,188 198,282l152 193c46,62 293,444 324,512 93,197 150,363 150,591 0,124 -33,238 -39,365 -8,180 -32,357 -78,528 -43,165 -90,280 -172,432 -32,59 3,85 -58,144 -32,31 -59,73 -92,109 -63,70 -107,167 -167,238 -83,98 -140,51 -321,283 -13,16 -37,40 -51,55 -29,29 -39,21 -44,69 53,1 123,-9 166,8 41,16 69,40 135,39 94,-1 210,-30 304,-43 336,-46 357,57 370,-238 6,-115 5,-91 -309,-88 -47,1 -123,9 -94,-54 26,-59 159,-257 193,-307 117,-174 235,-353 305,-552 27,-78 45,-86 77,-207 60,-228 50,-659 30,-887 -21,-244 -166,-583 -305,-762 -78,-100 -157,-203 -220,-308 -68,-115 -133,-215 -218,-321l-631 -791c-28,-34 -44,-64 -73,-100 -28,-33 -50,-72 -75,-108 -29,-42 -38,-56 -66,-107 -57,-106 -4,-63 -38,-144l-134 -222c-18,-27 -43,-86 -52,-116 -18,-57 -6,-85 -36,-150l-201 -690c-35,-127 -19,-388 -6,-514 5,-53 16,-92 19,-154 2,-58 -1,-126 10,-173 10,-42 14,-106 30,-143 14,-34 14,-21 21,-69 6,-37 7,-45 19,-74 35,-85 60,-164 112,-241 23,-35 41,-71 65,-108 26,-43 47,-70 73,-109 114,-173 139,-234 313,-399 56,-54 124,-108 191,-165l279 -249c34,-33 66,-54 99,-83 29,-25 67,-53 99,-74 22,-14 34,-17 55,-32 114,-80 254,-110 378,-163 26,-11 24,-20 53,-29 53,-18 93,-33 151,-35 107,-4 247,-23 356,-7 10,76 -82,213 -119,284l-175 334c-121,229 -217,344 -429,494 -70,50 -155,131 -231,172 -49,27 -103,29 -146,66 -77,65 -140,129 -186,218 -48,95 -53,226 -78,336 -15,65 -8,120 -15,189 -7,59 -21,103 -26,175 -22,377 -6,422 23,777l90 369c39,85 50,165 99,259l79 120c8,12 9,18 17,32 6,11 17,28 23,36 128,183 277,329 460,461 79,57 160,107 240,165l465 352c77,61 139,127 223,189 71,52 237,232 305,301 35,35 72,66 103,108 123,166 182,212 300,410 56,94 75,148 123,236l51 100c36,72 60,157 98,228l72 219c12,58 22,110 34,167l45 370c14,168 26,191 24,376 0,84 -25,300 -45,367 -11,35 -8,45 -13,85 -5,34 -16,47 -25,80l-42 159c-12,64 -32,105 -37,164 -7,74 -5,124 -41,171 -224,16 -466,-7 -685,18 -54,6 -112,7 -168,8 -72,2 -100,-10 -131,37 -16,24 -38,266 -34,307 48,39 142,21 204,21 79,0 81,-33 129,-57 56,-28 99,-10 146,17 89,51 247,-4 348,-12 99,-8 515,-13 558,-34 27,-13 177,-185 208,-220 41,-48 61,-29 67,-98 -275,7 -530,125 -432,-180 16,-50 8,-77 18,-128 7,-35 26,-64 31,-109l41 -241c22,-86 27,-167 32,-258 7,-126 38,-35 25,-395 -3,-64 -8,-72 -19,-123 -8,-37 -3,-91 -12,-135 -6,-35 -18,-53 -26,-105 -6,-39 -10,-89 -19,-128l-41 -170c-32,-73 -12,-51 -30,-112 -101,-349 -140,-426 -338,-730 -38,-58 -81,-121 -119,-170 -46,-59 -74,-107 -125,-163 -46,-50 -78,-101 -125,-154 -60,-70 -142,-149 -216,-206 -32,-25 -53,-33 -83,-61 -143,-138 -309,-267 -462,-394 -190,-157 -488,-319 -652,-481l-273 -294c-98,-113 -284,-398 -314,-542 -11,-56 -25,-66 -34,-108 -6,-25 -7,-36 -13,-57 -9,-34 -18,-26 0,-57 60,8 51,103 83,179 70,162 94,209 260,257 67,20 128,8 177,-50 41,-49 31,-153 26,-232 -10,-174 -75,-222 -186,-330 -176,-172 -333,31 -345,-217 -8,-144 -35,-271 -1,-409 55,-2 69,7 82,65 33,149 -6,62 105,181 182,195 63,144 355,356 41,29 106,92 145,134 54,58 81,83 151,138 52,41 112,72 187,90 44,11 62,28 113,28 47,0 98,-5 145,1 59,7 153,57 170,111 20,60 -4,62 33,112 73,97 69,132 187,215 81,57 170,124 274,150 59,15 37,27 113,30 235,10 165,-44 260,-32 62,7 299,185 336,233 6,91 -67,108 -61,202 7,127 155,327 274,385 72,36 111,57 200,61 129,7 192,-10 294,96 105,110 138,128 255,273 52,65 209,245 155,330 -79,127 -214,133 -178,320 8,41 5,77 9,120l49 204c56,105 36,130 182,210 69,38 132,38 223,49 46,64 24,77 37,165 15,111 81,473 56,541 -34,91 -230,178 -229,580l0 115c1,4 1,6 2,9l10 25c46,-8 33,-15 61,-49 16,-19 39,-41 52,-64 38,-63 -9,-114 70,-155 54,-14 123,92 159,133 7,7 8,7 13,16 37,59 12,231 -5,289 -17,58 -8,136 -12,200 -7,136 -39,246 -44,375 -2,63 -12,134 -18,194 -10,118 -51,272 119,201l14 -370 -58 -30c-5,-54 17,-119 44,-169l7 -13c57,-109 63,-262 65,-390 2,-75 15,-65 19,-124 9,-137 21,-121 84,-203 23,-62 -79,-406 -113,-484l-85 -516c-19,-243 -93,-330 -20,-641 44,-187 -42,-244 -108,-360 -19,-34 -29,-40 -52,-64 -139,-143 -230,-341 -358,-488 -180,-207 -397,-439 -559,-652 -25,-32 -77,-107 -98,-126 -107,-96 -219,-179 -336,-257l-486 -359c-39,-35 -75,-85 -105,-134 -105,-171 -249,-232 -460,-261 -117,-16 -232,-28 -312,-112 -9,-10 -20,-22 -31,-33 -5,-65 17,-136 7,-181 -8,-37 -64,-83 -95,-107 -135,-106 -346,-72 -513,-93 -82,-10 -98,-11 -150,-53 -74,-59 -130,-129 -184,-218 -44,-72 -33,-70 4,-143l678 -1310c33,-47 47,-78 72,-129l71 -131c24,-47 39,-92 65,-139 50,-87 97,-174 141,-261 45,-89 94,-186 131,-274l128 -276c22,-55 42,-85 61,-141 23,-66 68,-141 88,-209 12,-39 5,-48 22,-84 14,-31 15,-32 26,-70 9,-33 12,-53 32,-73 49,4 68,68 117,142 37,56 66,107 96,166 43,81 111,158 151,242 28,57 68,191 111,283 60,132 88,95 202,314 133,253 -11,365 77,561 113,252 38,389 105,469 188,223 268,29 402,142 64,55 124,139 165,212l205 373c32,79 165,296 210,375l262 507c120,261 278,499 403,760 20,41 40,87 61,131 64,130 192,388 277,492 15,19 22,34 35,59 11,21 25,47 34,71 22,52 45,84 66,127 33,68 107,192 118,264 15,94 92,167 135,252l68 124c25,46 45,86 66,127l1057 1940c32,66 20,17 69,124 34,74 204,349 259,425 32,45 46,58 75,115 13,27 103,149 149,236 27,51 113,158 127,210 20,71 -73,47 -184,47l-720 -2c-54,0 -81,-12 -118,22 -31,28 -51,41 -75,68 -28,32 -35,45 -62,72 -2,1 -14,13 -15,14 -41,36 -25,49 -42,69l-54 37c-17,17 -29,31 -45,52 -38,50 -76,44 -79,102 169,15 410,-5 576,-10 95,-2 172,-28 260,-36 97,-9 165,-26 268,-27 192,-3 366,-27 568,-33 132,-4 138,-45 192,-104 65,-70 145,-23 123,-174 -50,-37 -103,-56 -145,-103 -91,-100 -502,-817 -581,-956 -31,-54 -59,-116 -94,-166l-319 -565c-134,-229 -532,-869 -617,-1053 -37,-79 -50,-97 -95,-156 -32,-43 -78,-103 -102,-155 -12,-27 -26,-56 -42,-86 -36,-65 -65,-143 -107,-210l-294 -542c-38,-51 -59,-115 -94,-165 -25,-35 -24,-42 -44,-81 -82,-164 -76,-115 -159,-236 -100,-145 -129,-122 -143,-233 -5,-36 -24,-62 -45,-88 -38,-46 -64,-109 -95,-165 -32,-60 -14,-139 -52,-206l-91 -160c-88,-133 -124,-291 -203,-429 -79,-138 -168,-273 -233,-412 -56,-118 -125,-222 -181,-336l-160 -310c-6,-12 -5,-13 -10,-28 -11,-29 -63,-143 -81,-172l-183 -326c-21,-40 -12,-77 9,-112l43 -61c68,-87 212,-284 244,-398 76,-278 163,-397 -69,-666 -197,-229 -311,-342 -606,-423 -75,-21 -118,-35 -206,-44 -78,-8 -184,6 -250,-10 -116,-27 -185,-180 -240,-276l-176 -331c-30,-67 -95,-193 -143,-243 -40,-43 -96,-39 -155,-37 -58,78 -90,164 -131,252l-292 622c-37,82 -88,159 -128,255 -12,29 -30,64 -62,73 -25,7 -100,4 -132,6 -108,6 -228,31 -335,56 -164,38 -331,91 -483,170 -28,14 -58,29 -90,43 -254,112 -395,299 -567,482 -84,89 -165,178 -248,270 -199,221 -300,321 -441,598l-131 262c-85,118 -178,506 -141,630 10,33 30,65 28,98 -3,82 -70,56 -75,184 -4,120 -5,137 32,227 41,102 28,117 35,226 3,50 15,56 22,105 8,60 17,48 36,90 41,93 69,192 107,288 13,30 21,74 31,104 91,269 97,197 166,350 25,56 87,120 53,183 -31,57 -65,102 -91,168 -38,98 -88,165 -125,261 -23,61 -105,189 -140,260l-519 1051c-50,103 -114,202 -152,311 -21,61 -63,111 -87,171 -51,128 -107,189 -153,298 -50,119 -117,233 -170,350l-653 1315c-29,54 -52,138 -80,181l-94 165c-35,58 -115,93 -43,167 42,44 77,108 113,155z"/>
   <path class="fil0" d="M2404 10790c-2,-195 35,-259 45,-454 2,-34 33,-405 50,-449 1,-2 2,-6 4,-8 50,11 40,42 105,112 15,17 39,34 53,52l146 181c81,105 107,45 -75,235 -33,35 -75,77 -105,116 -35,44 -68,67 -106,106 -88,89 -60,102 -117,109zm111 -1111c1,-82 31,-223 22,-309 -51,-12 -650,26 -658,33 -29,23 -111,1096 -129,1218 -20,131 -37,242 -43,397 -3,82 -24,176 -26,202 -13,155 -7,159 -28,309 -5,30 -3,68 -7,101 -7,69 -19,127 -27,190 -9,69 -1,149 -13,211l-53 610c51,0 50,-27 124,-105l336 -356c79,-87 129,-149 224,-237 282,-261 133,-368 472,61l241 287c216,277 155,212 314,65 65,-60 186,-205 258,-280 34,-36 120,-112 117,-145 -1,-19 -416,-503 -485,-593 -220,-281 -209,-120 46,-420 58,-68 608,-632 609,-659l-311 -391c-84,-110 -456,-517 -515,-631 -51,-4 -47,9 -71,38l-275 292c-87,78 -51,95 -122,112z"/>
   <path class="fil0" d="M8218 12170c-9,-19 38,-412 49,-457 32,-133 -57,-392 156,-92 115,161 193,165 124,224l-260 270c-30,33 -25,51 -69,55zm120 -1262c-5,-61 18,-123 24,-169 7,-60 4,-202 16,-275 28,-157 7,-150 22,-264 21,-1 14,-3 30,4 1,1 4,2 5,3 24,14 30,41 42,61 20,30 52,66 73,92 16,21 24,26 40,46 11,14 21,33 32,45 83,99 128,52 -106,288 -73,74 -134,169 -178,169zm109 -1027c4,-41 -1,-49 -36,-55l-445 29c-41,27 -13,87 -30,162 -31,136 -20,371 -41,429 -23,59 -75,675 -76,765 -1,71 -13,102 -20,169 -6,50 -13,114 -17,167 -3,47 -3,42 -12,81 -14,70 -41,495 -55,600 -6,40 -12,26 -15,77l-13 263c61,4 448,-9 486,-21 21,-50 -10,-174 21,-217 13,-14 -21,-11 24,-11 30,0 6,-4 23,11l97 125c134,159 131,193 205,108l347 -364c63,-70 134,-147 199,-214 33,-34 62,-73 95,-107 95,-99 135,-100 39,-193l-247 -291c-21,-24 -40,-50 -59,-75 -33,-40 -103,-118 -117,-147 14,-38 -3,-6 20,-33l363 -386c21,-22 221,-230 221,-254 -1,-20 -199,-243 -240,-292 -28,-32 -46,-61 -76,-97 -391,-470 -291,-410 -409,-294 -32,32 -47,52 -77,88 -34,41 -124,149 -175,156 0,-54 15,-130 20,-179z"/>
   <path class="fil0" d="M6845 12201c-41,-4 -38,-19 -64,-53l-260 -316c-47,-58 -96,-67 -26,-135 98,-94 229,-247 336,-356 111,-113 50,-103 119,-102l-76 732c-5,52 -13,73 -16,114 -3,34 6,86 -13,116zm501 87c34,-133 87,-1101 117,-1219 22,-91 15,-207 31,-306 15,-99 18,-201 32,-302 7,-47 11,-15 15,-68l20 -230c4,-111 19,-212 18,-321 -51,5 -49,21 -77,57l-850 898c-24,24 -33,44 -56,68 -255,264 -496,535 -746,792 -104,106 -121,121 -80,168 169,193 261,334 442,528 57,61 221,292 277,327 58,-15 185,-193 237,-234 146,-115 53,-115 194,-127 45,-4 92,-6 144,-10 84,-6 202,-5 282,-21z"/>
   <path class="fil0" d="M4734 11708c1,-94 3,-140 20,-223 11,-54 8,-157 14,-210l46 -404c15,-57 10,-152 18,-212l21 -198c5,-146 42,-340 30,-421 -75,-9 -187,1 -267,2 -311,3 -236,37 -257,204l-54 532c-4,168 -25,168 -30,365 -1,45 -16,123 -23,169 -8,56 -12,120 -13,177 -4,106 -16,267 -35,363 -34,178 -5,157 80,268l182 211c28,33 56,69 87,105 123,149 46,146 334,-148l474 -506c41,-38 80,-83 122,-127 24,-24 36,-41 59,-66 56,-62 95,-43 -12,-169 -50,-59 -196,-224 -222,-279 -49,-1 -49,23 -79,58l-408 447c-7,8 -28,28 -33,33 -37,32 -6,17 -54,29z"/>
   <path class="fil0" d="M6345 8112c51,3 57,28 86,63 30,36 30,47 53,92 16,31 12,11 20,50 13,67 21,154 -15,205 -72,9 -124,-100 -152,-160 -42,-92 -70,-153 -8,-233 11,-14 6,-7 16,-17zm-87 -152c-208,64 -97,386 -30,532 41,89 77,153 145,221 41,41 167,142 248,113 34,-13 69,-58 87,-100 25,-56 25,-81 25,-158 0,-163 -9,-191 -63,-304 -73,-152 -200,-370 -412,-304z"/>
   <path class="fil0" d="M4383 5935c-54,29 -150,112 -163,174 -8,40 87,189 114,223 94,124 185,278 408,263 75,-5 132,-108 149,-184 17,-78 -67,-167 -105,-223 -62,-90 -204,-248 -324,-265 -47,-6 -58,0 -79,12z"/>
   <path class="fil0" d="M6852 9990c0,87 -24,191 -130,164 -119,-29 -57,-154 -56,-202 1,-32 -3,-120 3,-145 22,-97 182,-32 183,183zm-290 -14c-82,4 -56,-21 -121,-19 -18,27 -19,48 -34,83 -44,104 -35,109 89,250 270,305 542,-109 542,-310 0,-111 -37,-338 -107,-430 -89,-6 -82,70 -170,117 -26,14 -50,18 -71,35 -47,37 -90,205 -128,274z"/>
   <path class="fil0" d="M5441 6962c98,-16 177,62 226,122 99,122 107,152 71,222 -153,13 -304,-263 -297,-344zm-30 -213c-390,315 316,945 481,626 57,-111 -28,-298 -84,-393 -57,-96 -302,-310 -397,-233z"/>
  </g>
 </g>
</svg>